<svg height='25px' width='70px'  fill="#ffffff" xmlns="http://www.w3.org/2000/svg" xmlns:xlink="http://www.w3.org/1999/xlink" version="1.1" x="0px" y="0px" viewBox="0 0 512 512" enable-background="new 0 0 512 512" xml:space="preserve"><path d="M397.414,164.594l-58.562-0.031V83.25c0-45.906-37.344-83.25-83.266-83.25  C209.68,0,172.32,37.344,172.32,83.25v81.312h-57.844c-4.281,0.125-7.984,3.375-8.656,7.734  c-0.312,3.016-35.25,327.078-35.641,331.078c0.016,4.531,4.109,8.625,9.141,8.625h353.391c5.016,0,9.109-4.094,9.109-9.125  c-0.375-3.5-35.281-327.562-35.641-330.828C405.539,167.938,401.836,164.688,397.414,164.594z M190.539,83.25  c0-35.875,29.172-65.031,65.047-65.031s65.031,29.156,65.031,65.031v81.312H190.539V83.25z M89.523,493.75l0.688-6.312  c5.031-47.047,19.125-177.688,29.375-272.844l3.422-31.781h49.312v35.375c0,5,4.094,9.094,9.125,9.094  c5.016,0,9.094-4.094,9.094-9.094v-35.375h130.078v35.375c0,5,4.094,9.094,9.125,9.094c5.016,0,9.109-4.094,9.109-9.094v-35.375  h50.156l33.5,310.938H89.523z"></path></svg>